<svg xmlns="http://www.w3.org/2000/svg" viewBox="0 0 1221.42 253.84"><g id="Layer_2" data-name="Layer 2"><g id="Layer_1-2" data-name="Layer 1"><path fill="#00CBA9" d="M138.13,0c2.15.81,2.15.81,3.15,1.81.09,1.48.12,3,.11,4.43v9.11q0,5,0,10c0,2.26,0,4.52,0,6.78q0,8.33-.05,16.65l2.34.91a47.14,47.14,0,0,1,7.91,4.34l2.64,1.71,3.11,2L159.51,59c6.26,3.53,6.26,3.53,7.6,6.94a48.88,48.88,0,0,1,.28,7.56l0,2.9c0,3.15,0,6.3-.05,9.45,0,2.19,0,4.37,0,6.56,0,5.75,0,11.5,0,17.25s0,11.75,0,17.62q0,17.28-.08,34.54l16,1,0-7.77q0-12.67-.07-25.37,0-7.69-.05-15.39,0-7.43,0-14.84c0-1.89,0-3.78,0-5.67,0-2.64,0-5.29,0-7.93l0-2.38c0-5.42,0-5.42,2.25-7.65a18.85,18.85,0,0,1,10,4v2l2.25.88c2.32,1,4.53,2,6.75,3.12v2l2.13.75c8.14,3.54,8.14,3.54,10,8a36.4,36.4,0,0,1,1,10l0,3.77-.05,3.9,0,4c0,3.22-.06,6.44-.1,9.66l1.79.34c10.15,2.07,17.4,6.86,24,14.85,1.19,1.81,1.19,1.81,1.19,3.81h2c3.6,7.44,4.65,13.78,4.56,22l.08,3.08c0,10.31-3.93,17.75-10.87,25.23-6,5.69-6,5.69-9.77,5.69L230,204.6a42.61,42.61,0,0,1-4.67,13.24h-2l-.81,1.82c-2.63,4.83-6.31,6.48-11.31,8.38-5,1.39-9.86,1.22-15,1.05L193,229c-2.57,0-5.13-.11-7.69-.2l-.83,1.89c-1.77,3.2-3.78,3.9-7.17,5.11-4.53,0-6.39-.48-9.87-3.43-3.35-4-3.4-6.33-3.13-11.57.83-3.64,1.56-4.68,4.63-6.87a16.58,16.58,0,0,1,11.37-.13,19,19,0,0,1,5,4v2l11.19-.43,3.2-.12,3.09-.13,2.84-.11a52.45,52.45,0,0,0,7.68-1.21v-2l2.25-2.18a38.15,38.15,0,0,0,6.75-9.82c-8.57-.25-8.57-.25-15.69,3.57l-2.31,2.43a19.16,19.16,0,0,1-10,0c-3.73-2.62-5.53-5.82-7.19-10,.27-4.3,2.29-6.9,5.19-10,3.69-2.45,6.72-2.7,11-2,2.81,1.8,4.51,3,6,6h22v-2l2.25-1.62c5.64-4.87,7.95-12.09,8.75-19.38a45.45,45.45,0,0,0-1-9l-.42-2.43c-1.87-8.14-6.81-14.11-13.52-19-4.86-2.67-10.23-3.73-15.62-4.88l-2.44-.71c-1.51-3-.94-5.71-.79-9.06,0-2.21.08-4.42.11-6.64,0-1.52.1-3,.18-4.55l.13-2.23.13-2c-.12-6.61-.12-6.61-3.3-12.14a68.75,68.75,0,0,0-6.06-3.91L197.53,93c-1.73-1.07-3.49-2.12-5.25-3.16l0,2.94q-.12,13.71-.27,27.42-.08,7-.13,14.09-.06,6.79-.14,13.6c0,1.73,0,3.46,0,5.19q0,3.63-.08,7.26v2.18c-.06,3.66-.22,5.2-2.31,8.32a32.25,32.25,0,0,1-6.47.37h-3.92l-2,0q-3.09,0-6.18,0c-10.12-.06-10.12-.06-12.39-2.33-.16-3.12-.19-6.16-.14-9.29,0-2,0-4,0-6l0-3.22c.06-5.62.06-11.25.07-16.87q0-10.74.14-21.47.1-8.67.07-17.34c0-2.2,0-4.41.07-6.61.75-11.74.75-11.74-3.64-22a40.33,40.33,0,0,0-8.65-4.17c-1.68-1-3.35-2-5-3q-.09,32.3,0,64.57,0,15,0,30,0,13.06,0,26.14,0,6.91,0,13.83,0,6.51,0,13c0,1.59,0,3.18,0,4.78-.36,8.54-.36,8.54,2.88,16.15a21.64,21.64,0,0,0,4.44,3.36l1.71,1.16v2l1.61.68a47.93,47.93,0,0,1,8.64,6.57l1.68,1.41c2.85,2.55,4,3.84,4.43,7.7l-.36,2.64c-2.5.94-2.5.94-6,1a37.85,37.85,0,0,1-8-7v-2l-4-2v-2l-1.62-.68a43.16,43.16,0,0,1-8.38-6.32v-2l-1.94-.93a8.3,8.3,0,0,1-3.06-2.07c-.1-2.79-.13-5.56-.12-8.35V217.8c0-3,0-6,0-9V202.4q0-8.75,0-17.48,0-9.12,0-18.23,0-17.28,0-34.57,0-19.66,0-39.33,0-40.47.05-80.95l-3.22,2.3-4.29,3-2.11,1.51a65.16,65.16,0,0,1-14.28,7.46c-3.79,2.26-5.68,4.16-6.84,8.52-1.22,8.53-1,17.13-.81,25.72.06,3.81,0,7.62,0,11.43,0,7.21.07,14.41.17,21.62.14,10.59.17,21.18.2,31.77,0,1.56,0,3.12,0,4.68v2.31q0,6.81.11,13.61c0,2.81,0,5.62.08,8.44,0,1.93,0,3.86.08,5.79l0,3.46,0,3c-.22,2.36-.22,2.36-2.22,4.36a52.7,52.7,0,0,1-6.69.27h-2l-4.18,0q-3.19,0-6.4,0H73.23c-3-.26-3-.26-5-2.26-.22-2.86-.31-5.62-.32-8.48l0-2.67q0-4.37-.06-8.73l-.06-6q-.07-8-.13-15.93-.06-8.13-.14-16.25-.15-15.94-.26-31.9l-1.34,1c-2,1.51-4,3-6,4.49l-2.12,1.59-2,1.51-1.88,1.39c-1.6,1-1.6,1-3.6,1l0,2.38q.09,11.09.14,22.16,0,5.7.07,11.4,0,5.49.06,11,0,2.1,0,4.2c0,1.95,0,3.91,0,5.86l0,3.38-.36,2.63c-3,2-3,2-7,2-2.53-3.79-2.22-6.8-2.12-11.18l0-2.28c0-1.84.06-3.69.1-5.54a50.07,50.07,0,0,0-18,6c-2,1-2,1-4,1l-.81,1.73a54.39,54.39,0,0,1-4.25,6.59c-5.49,8.23-4.13,17.9-3.81,27.43,1.22,4.54,3.71,7.81,6.87,11.25l2,1v2c4.35,1.21,8.51,1.3,13,1.38l2.45.11a27.12,27.12,0,0,0,6.55-.49,14,14,0,0,0,4-5c3.47-1.73,7.21-1.6,11-1a19,19,0,0,1,6,7c.35,5.35.46,8.65-3,13-4.21,2.81-8.05,2.83-13,2l-2.44-2.5c-3.12-3-4.14-2.84-8.37-2.81-1.73.08-3.46.18-5.19.31,2.84,6.41,2.84,6.41,8,11v2a57.34,57.34,0,0,0,10.52,1.32l3.1.13,3.19.12,3.26.13,7.93.3.83-2.38c1.17-2.62,1.17-2.62,3.86-4.49,4-1.38,6.21-1.32,10.31-.13,4.08,3.47,5.84,5.42,6.38,10.75a10.37,10.37,0,0,1-2.75,7.69c-3.08,3-3.69,3.49-7.94,3.81-4.85-.32-7.31-1.86-10.69-5.25a23.12,23.12,0,0,0-4.91-.27l-3-.06c-2.07,0-4.15,0-6.22-.06-9.84-.23-16.92-2.95-24.14-9.68A23.57,23.57,0,0,1,21.78,206l-.5-3.13a8.42,8.42,0,0,0-4-2c-8.11-4.32-13-12.49-16-21-3-12.55-.62-24.13,6-35,7.65-10.58,17.2-15.86,30-18h4l0-3.42q-.06-6.3-.08-12.59c0-1.82,0-3.63,0-5.45,0-2.61,0-5.22,0-7.83l0-2.46c0-7.18,0-7.18,2.23-10.25,2.06-1.65,4.07-3.15,6.25-4.62l3.79-2.62,2-1.36c2-1.4,4-2.84,5.89-4.31l1.89-1.41c1.21-.89,2.4-1.8,3.59-2.72,4-3,4-3,7-2.85,1.66.89,1.66.89,2.66,2.89.09,3,.13,6,.11,9V79.6c0,3.07,0,6.15,0,9.22,0,2.13,0,4.25,0,6.38q0,8.42,0,16.82,0,8.58,0,17.15,0,16.85,0,33.67l17-1v-5.1q0-23.78.12-47.55.06-12.21.07-24.44,0-10.65.06-21.3c0-3.77,0-7.53,0-11.29,0-4.19,0-8.39.05-12.58l0-3.8,0-3.45v-3c.63-2.48.63-2.48,3-4.32,2.58-1.16,2.58-1.16,4.58-1.16v-2c6.75-4,6.75-4,9-4v-2a41.22,41.22,0,0,1,4.63-3.06c3.39-2.08,6.76-4.18,10-6.43l1.87-1.26q1.81-1.23,3.6-2.49C133.18.76,134.77-.19,138.13,0Z"/><path fill="#00CBA9" d="M718.28,82.84c52.05,0,52.05,0,61,7,5.86,7,7.71,13,7,22-1.27,6.64-4.63,10.12-10,14l1.79,1c6.48,3.83,10.08,7.75,12.21,15,.93,6.44.76,12.5-2.61,18.19-5.91,7.7-12.92,11.2-22.39,12.81-1.62.09-3.25.12-4.88.12h-2.89l-3,0h-2.78l-10.26,0-23.19-.07Zm13,12v26q6.68.1,13.34.17c1.51,0,3,0,4.54.06,2.18,0,4.36.05,6.53.07l4,0c4.85-.45,8.25-1.79,11.5-5.46a18.84,18.84,0,0,0-.07-14.75c-3.36-3.94-6.79-5.35-11.81-6.13-2.2-.08-4.41-.1-6.61-.09h-3.78l-3.92,0-4,0Zm0,38v28q6.62.1,13.23.17l4.5.06c13.55.42,13.55.42,25.27-5.79,2.69-4.62,2.77-8.21,2-13.44-1.5-4.31-4.12-6.19-8.19-8.16-6.48-1.93-13.6-1.23-20.31-1.09l-4.8.06C739.08,132.69,735.18,132.77,731.28,132.84Z"/><path fill="#00CBA9" d="M1152.4,82.27c3.31,0,5.22.1,7.94,2a63.58,63.58,0,0,1,5,6.66l1.8,2.5c1.75,2.43,3.45,4.9,5.14,7.37q1.29,1.81,2.59,3.61,2.37,3.3,4.72,6.63c5,7.11,10.35,14,15.6,21l6.83,9.09,1.25,1.67,3,4,0-2.38q.15-11.1.31-22.21c.06-3.8.11-7.61.16-11.41l.15-11,.06-4.21q0-2.94.09-5.88l0-3.38c.16-2.52.16-2.52,1.16-3.52,2-.07,4-.08,6.06-.06l3.35,0,2.59,0c1.26,3.78,1.14,7.29,1.13,11.22V96.6q0,4.16,0,8.31c0,1.93,0,3.85,0,5.77q0,6,0,12.08v15.52q0,5.94,0,11.9c0,1.91,0,3.81,0,5.72q0,4,0,8v2.42c0,5.43,0,5.43-1.14,6.54a21.85,21.85,0,0,1-12,0c-3.62-3.56-6.08-7.63-8.71-12-2.13-3.37-4.55-6.51-7-9.67l-3-4-1.59-2.11q-4.64-6.13-9.24-12.29l-1.75-2.32c-5.63-7.49-11.15-15.06-16.69-22.62l-1,65h-13q0-17.37,0-34.76,0-8.07,0-16.14,0-7.77,0-15.56c0-2,0-4,0-5.95,0-2.77,0-5.53,0-8.3V89.62C1146.17,83.42,1146.19,82.68,1152.4,82.27Z"/><path fill="#00CBA9" d="M848.14,82.64l2.74,0,5.76,0c2.9,0,5.8,0,8.71-.07,25.6-.15,25.6-.15,35.93,8.31,6,6,8.13,11.67,8.38,20-.21,7.24-1.81,13-6.72,18.56A43.42,43.42,0,0,1,896.1,134l-2.73,1.61-2.09,1.21,7.1,12.12c.8,1.37,1.61,2.74,2.41,4.12l3.48,5.93,1.08,1.85c1.53,2.61,3.07,5.21,4.68,7.79,1.25,2.19,1.25,2.19,1.25,4.19-5,1-10.09,1.89-15,0-6-5.42-9-14.57-12-21.87-2.95-6.84-2.95-6.84-8-12.13-7.92-2.35-15.8-1.4-24-1v35h-13c-1.81-1.8-1.13-4.29-1.13-6.69v-5.08c0-2.85,0-5.69,0-8.54v-5.91c0-4.13,0-8.26,0-12.39,0-5.31,0-10.62,0-15.93q0-6.1,0-12.21c0-2,0-3.92,0-5.87,0-2.74,0-5.47,0-8.2V89.54C838.18,81.37,840.81,82.68,848.14,82.64Zm4.14,12.2v31q6.88.15,13.77.22,2.34,0,4.68.09,3.38.06,6.75.08l2.09.07c5,0,7.81-1.33,11.71-4.46,3.55-4,4.3-7.56,4.22-12.94-.46-4.41-2.4-7.24-5.47-10.31-7.52-4.78-15.57-4-24.19-3.87Z"/><path fill="#00CBA9" d="M989.32,82.65l3.59.07,3.6,0,2.77.07c3.15,6.12,5.91,12.34,8.56,18.69l2.88,6.85,1.66,3.94q5.28,12.59,10.61,25.15,1.92,4.54,3.83,9.07l1.22,2.9q1.14,2.72,2.29,5.41l1,2.48,1,2.34c.6,1.4,1.22,2.8,1.85,4.18a18.45,18.45,0,0,1,2.08,9h-13c-9-17.8-9-17.8-9-22h-44l-1,5q-.74,2-1.59,4l-.94,2.12-1,2.17-1,2.22c-2.39,5.39-2.39,5.39-3.53,6.53-2.19.08-4.37.09-6.56.07l-3.63,0-2.81,0a41.3,41.3,0,0,1,3.2-11.48l1.39-3.22,1.54-3.48L956,151c1.15-2.63,2.29-5.27,3.44-7.91q4.35-10,8.62-20l2.9-6.77c2.69-6.26,5.37-12.52,8-18.81l1.13-2.72c.66-1.59,1.31-3.17,1.95-4.76C984.94,82.93,984.94,82.93,989.32,82.65Zm3,17.19q-5.37,11.34-10.25,22.88l-1,2.41-1,2.33-.87,2c-1.14,3.05-2,6.2-2.87,9.33h32c-1.87-5.6-3.72-11-5.92-16.44l-.79-2-2.48-6.14-1.69-4.21q-2.05-5.11-4.12-10.23Z"/><path fill="#FFFFFF" d="M371.26,91.2c3.24,2.49,4,3.55,5,7.64l-8,7a34.36,34.36,0,0,1-7.62-4.93c-8.22-6.19-17.34-6.94-27.38-6.07a31.72,31.72,0,0,0-20.6,12A36.24,36.24,0,0,0,307,133.41c1.57,7.54,4.77,15.08,11.13,19.78,10.17,6.65,21.24,7,33,5.22,5.3-1.52,9-4.62,13-8.34,2.14-1.23,2.14-1.23,4.73-.59a30,30,0,0,1,7.41,6.36c-3.07,7.23-10.32,10.93-17.25,13.88-13.29,5.31-28.59,4.53-41.75-.88a62.89,62.89,0,0,1-9-6l-2.62-1.75c-9-8.54-13.39-19-13.85-31.26-.17-14.28,3.42-25.42,13.35-36C323.79,76.38,351,77.31,371.26,91.2Z"/><path fill="#FFFFFF" d="M603.28,81.84c11.94-1.34,11.94-1.34,16.1,1.38a55.22,55.22,0,0,1,4.9,7.62q1.26,2.09,2.54,4.15,2.14,3.47,4.25,7c3.62,6,7.52,11.78,11.63,17.49,1.58,2.4,1.58,2.4,1.58,4.4h2l.83-2.23a42.11,42.11,0,0,1,3.86-7.07l1.6-2.44,1.71-2.57c4.77-7.23,9.44-14.51,13.93-21.92,2.86-4.66,2.86-4.66,5.07-5.77,2.37-.07,4.75-.08,7.13-.06l3.88,0,3,0,1,2L685.5,88l-1.79,2.68-3.89,5.83c-3.9,5.85-3.9,5.85-7.79,11.71L670.22,111l-1.79,2.82a67.35,67.35,0,0,1-5.49,6.77c-11.8,13.82-11.34,27.95-10.73,45.32.06,1.65.07,3.31.07,5-1,1-1,1-3.94,1.1l-3.62,0-3.63,0-2.81,0,.37-2.51c3.61-30-9.52-48.63-27-72-3.29-4.39-6.34-8.91-9.33-13.51Z"/><path fill="#FFFFFF" d="M492.22,81.71h27.55q6.88,0,13.75,0h24.82c4.83,0,4.83,0,5.94,1.13v12h-32v77h-14v-77h-32C486.28,81.73,486.28,81.73,492.22,81.71Z"/><path fill="#00CBA9" d="M1083,82.71h6.62c2.69.13,2.69.13,3.69,1.13.1,2.77.13,5.52.11,8.29v2.63c0,2.88,0,5.77,0,8.65,0,2,0,4,0,6q0,7.89,0,15.78,0,8,0,16.09,0,15.8,0,31.58h-14q0-17.37,0-34.76,0-8.07,0-16.14,0-7.77,0-15.56c0-2,0-4,0-5.95,0-2.77,0-5.53,0-8.3V89.62C1079.17,82.9,1079.17,82.9,1083,82.71Z"/><path fill="#FFFFFF" d="M430,81.75l3.34,0,3.35,0,2.59,0c1.33,4,1.14,8.08,1.13,12.24v2.51q0,4.11,0,8.2c0,1.9,0,3.8,0,5.7q0,6,0,11.92v15.31c0,3.92,0,7.83,0,11.75,0,1.88,0,3.77,0,5.65,0,2.62,0,5.25,0,7.87v2.38c0,5.36,0,5.36-1.14,6.47-2.19.08-4.37.09-6.56.07l-3.63,0-2.81,0q0-17.37,0-34.76,0-8.07,0-16.14,0-7.77,0-15.56c0-2,0-4,0-5.95,0-2.77,0-5.53,0-8.3V88.62C426.17,81.88,426.17,81.88,430,81.75Z"/></g></g></svg>